<mxfile host="65bd71144e">
    <diagram id="86yxUbU3uUL-UhE3IY4e" name="Page-1">
        <mxGraphModel dx="1618" dy="616" grid="1" gridSize="10" guides="1" tooltips="1" connect="1" arrows="1" fold="1" page="1" pageScale="1" pageWidth="850" pageHeight="1100" math="0" shadow="0">
            <root>
                <mxCell id="0"/>
                <mxCell id="1" parent="0"/>
                <mxCell id="53" value="" style="rounded=1;whiteSpace=wrap;html=1;" vertex="1" parent="1">
                    <mxGeometry x="-210" y="28" width="1080" height="1045" as="geometry"/>
                </mxCell>
                <mxCell id="49" value="" style="rounded=1;whiteSpace=wrap;html=1;" vertex="1" parent="1">
                    <mxGeometry x="530" y="510" width="160" height="340" as="geometry"/>
                </mxCell>
                <mxCell id="27" style="edgeStyle=none;html=1;" edge="1" parent="1" source="11" target="26">
                    <mxGeometry relative="1" as="geometry">
                        <Array as="points">
                            <mxPoint x="330" y="600"/>
                        </Array>
                    </mxGeometry>
                </mxCell>
                <mxCell id="54" value="1" style="edgeLabel;html=1;align=center;verticalAlign=middle;resizable=0;points=[];" vertex="1" connectable="0" parent="27">
                    <mxGeometry x="-0.125" relative="1" as="geometry">
                        <mxPoint as="offset"/>
                    </mxGeometry>
                </mxCell>
                <mxCell id="11" value="" style="rounded=1;whiteSpace=wrap;html=1;" vertex="1" parent="1">
                    <mxGeometry x="250" y="280" width="160" height="280" as="geometry"/>
                </mxCell>
                <mxCell id="3" style="edgeStyle=none;html=1;entryX=0.5;entryY=0;entryDx=0;entryDy=0;" edge="1" parent="1" source="2" target="13">
                    <mxGeometry relative="1" as="geometry">
                        <mxPoint x="330" y="280" as="targetPoint"/>
                    </mxGeometry>
                </mxCell>
                <mxCell id="20" value="1" style="edgeLabel;html=1;align=center;verticalAlign=middle;resizable=0;points=[];" vertex="1" connectable="0" parent="3">
                    <mxGeometry x="-0.1226" relative="1" as="geometry">
                        <mxPoint as="offset"/>
                    </mxGeometry>
                </mxCell>
                <mxCell id="21" style="edgeStyle=none;html=1;" edge="1" parent="1" source="2">
                    <mxGeometry relative="1" as="geometry">
                        <mxPoint x="30" y="150" as="targetPoint"/>
                        <Array as="points">
                            <mxPoint x="40" y="150"/>
                        </Array>
                    </mxGeometry>
                </mxCell>
                <mxCell id="22" value="2" style="edgeLabel;html=1;align=center;verticalAlign=middle;resizable=0;points=[];" vertex="1" connectable="0" parent="21">
                    <mxGeometry x="-0.13" y="-2" relative="1" as="geometry">
                        <mxPoint as="offset"/>
                    </mxGeometry>
                </mxCell>
                <mxCell id="2" value="LLAMADO AL CONTROLADOR&lt;br&gt;ModifyCity" style="rounded=1;whiteSpace=wrap;html=1;fillColor=#330000;fontColor=#ffffff;strokeColor=#000000;" vertex="1" parent="1">
                    <mxGeometry x="270" y="120" width="120" height="60" as="geometry"/>
                </mxCell>
                <mxCell id="5" value="const id&lt;br&gt;(req.params.id)" style="rounded=1;whiteSpace=wrap;html=1;" vertex="1" parent="1">
                    <mxGeometry x="280" y="320" width="100" height="50" as="geometry"/>
                </mxCell>
                <mxCell id="45" style="edgeStyle=none;html=1;entryX=0;entryY=0.5;entryDx=0;entryDy=0;" edge="1" parent="1" source="8" target="42">
                    <mxGeometry relative="1" as="geometry">
                        <Array as="points">
                            <mxPoint x="490" y="405"/>
                            <mxPoint x="490" y="680"/>
                        </Array>
                    </mxGeometry>
                </mxCell>
                <mxCell id="8" value="const data&lt;br&gt;(req.body.data)" style="rounded=1;whiteSpace=wrap;html=1;" vertex="1" parent="1">
                    <mxGeometry x="280" y="380" width="100" height="50" as="geometry"/>
                </mxCell>
                <mxCell id="57" style="edgeStyle=none;html=1;entryX=1;entryY=0.5;entryDx=0;entryDy=0;exitX=1;exitY=0.5;exitDx=0;exitDy=0;" edge="1" parent="1" source="9" target="29">
                    <mxGeometry relative="1" as="geometry">
                        <Array as="points">
                            <mxPoint x="420" y="465"/>
                            <mxPoint x="420" y="830"/>
                        </Array>
                    </mxGeometry>
                </mxCell>
                <mxCell id="9" value="let city" style="rounded=1;whiteSpace=wrap;html=1;" vertex="1" parent="1">
                    <mxGeometry x="280" y="440" width="100" height="50" as="geometry"/>
                </mxCell>
                <mxCell id="19" style="edgeStyle=none;html=1;entryX=0.5;entryY=1;entryDx=0;entryDy=0;" edge="1" parent="1" source="10" target="15">
                    <mxGeometry relative="1" as="geometry">
                        <Array as="points">
                            <mxPoint x="-50" y="525"/>
                        </Array>
                    </mxGeometry>
                </mxCell>
                <mxCell id="10" value="let error&lt;br&gt;(null)" style="rounded=1;whiteSpace=wrap;html=1;" vertex="1" parent="1">
                    <mxGeometry x="280" y="500" width="100" height="50" as="geometry"/>
                </mxCell>
                <mxCell id="13" value="inicializa variables" style="rounded=1;whiteSpace=wrap;html=1;" vertex="1" parent="1">
                    <mxGeometry x="280" y="260" width="100" height="20" as="geometry"/>
                </mxCell>
                <mxCell id="15" value="" style="rounded=1;whiteSpace=wrap;html=1;" vertex="1" parent="1">
                    <mxGeometry x="-130" y="70" width="160" height="150" as="geometry"/>
                </mxCell>
                <mxCell id="16" value="RESPONSE" style="text;html=1;strokeColor=none;fillColor=none;align=center;verticalAlign=middle;whiteSpace=wrap;rounded=0;" vertex="1" parent="1">
                    <mxGeometry x="-80" y="85" width="60" height="30" as="geometry"/>
                </mxCell>
                <mxCell id="17" value="Response&lt;br&gt;Success&lt;br&gt;Error" style="rounded=0;whiteSpace=wrap;html=1;" vertex="1" parent="1">
                    <mxGeometry x="-110" y="130" width="120" height="70" as="geometry"/>
                </mxCell>
                <mxCell id="28" style="edgeStyle=none;html=1;" edge="1" parent="1" source="26">
                    <mxGeometry relative="1" as="geometry">
                        <mxPoint x="330" y="800" as="targetPoint"/>
                    </mxGeometry>
                </mxCell>
                <mxCell id="58" value="1" style="edgeLabel;html=1;align=center;verticalAlign=middle;resizable=0;points=[];" vertex="1" connectable="0" parent="28">
                    <mxGeometry x="-0.0784" relative="1" as="geometry">
                        <mxPoint as="offset"/>
                    </mxGeometry>
                </mxCell>
                <mxCell id="51" value="" style="edgeStyle=none;html=1;" edge="1" parent="1" source="26" target="50">
                    <mxGeometry relative="1" as="geometry"/>
                </mxCell>
                <mxCell id="59" value="2" style="edgeLabel;html=1;align=center;verticalAlign=middle;resizable=0;points=[];" vertex="1" connectable="0" parent="51">
                    <mxGeometry x="0.0677" y="1" relative="1" as="geometry">
                        <mxPoint as="offset"/>
                    </mxGeometry>
                </mxCell>
                <mxCell id="26" value="TRY" style="rounded=1;whiteSpace=wrap;html=1;" vertex="1" parent="1">
                    <mxGeometry x="270" y="640" width="120" height="60" as="geometry"/>
                </mxCell>
                <mxCell id="33" value="" style="edgeStyle=none;html=1;" edge="1" parent="1" source="29" target="32">
                    <mxGeometry relative="1" as="geometry">
                        <Array as="points">
                            <mxPoint x="330" y="890"/>
                        </Array>
                    </mxGeometry>
                </mxCell>
                <mxCell id="34" value="findOneAndUpdate" style="edgeLabel;html=1;align=center;verticalAlign=middle;resizable=0;points=[];" vertex="1" connectable="0" parent="33">
                    <mxGeometry x="0.1726" y="-1" relative="1" as="geometry">
                        <mxPoint y="-7" as="offset"/>
                    </mxGeometry>
                </mxCell>
                <mxCell id="29" value="llama la variable &lt;br&gt;city" style="rounded=1;whiteSpace=wrap;html=1;" vertex="1" parent="1">
                    <mxGeometry x="270" y="800" width="120" height="60" as="geometry"/>
                </mxCell>
                <mxCell id="38" value="" style="edgeStyle=none;html=1;" edge="1" parent="1" source="32" target="37">
                    <mxGeometry relative="1" as="geometry"/>
                </mxCell>
                <mxCell id="32" value="Model Cities" style="rounded=1;whiteSpace=wrap;html=1;" vertex="1" parent="1">
                    <mxGeometry x="270" y="940" width="120" height="60" as="geometry"/>
                </mxCell>
                <mxCell id="41" value="" style="edgeStyle=none;html=1;" edge="1" parent="1" source="37" target="40">
                    <mxGeometry relative="1" as="geometry"/>
                </mxCell>
                <mxCell id="37" value="DB MyTinerary" style="rounded=1;whiteSpace=wrap;html=1;" vertex="1" parent="1">
                    <mxGeometry x="550" y="940" width="120" height="60" as="geometry"/>
                </mxCell>
                <mxCell id="39" value="" style="image;html=1;image=img/lib/clip_art/computers/Database_128x128.png" vertex="1" parent="1">
                    <mxGeometry x="660" y="930" width="80" height="80" as="geometry"/>
                </mxCell>
                <mxCell id="43" value="" style="edgeStyle=none;html=1;" edge="1" parent="1" source="40" target="42">
                    <mxGeometry relative="1" as="geometry"/>
                </mxCell>
                <mxCell id="40" value="_id:id" style="rhombus;whiteSpace=wrap;html=1;rounded=1;" vertex="1" parent="1">
                    <mxGeometry x="570" y="750" width="80" height="80" as="geometry"/>
                </mxCell>
                <mxCell id="47" value="" style="edgeStyle=none;html=1;" edge="1" parent="1" source="42" target="46">
                    <mxGeometry relative="1" as="geometry"/>
                </mxCell>
                <mxCell id="42" value="data" style="ellipse;whiteSpace=wrap;html=1;rounded=1;" vertex="1" parent="1">
                    <mxGeometry x="570" y="640" width="80" height="80" as="geometry"/>
                </mxCell>
                <mxCell id="46" value="new : true" style="rhombus;whiteSpace=wrap;html=1;rounded=1;" vertex="1" parent="1">
                    <mxGeometry x="570" y="520" width="80" height="80" as="geometry"/>
                </mxCell>
                <mxCell id="52" style="edgeStyle=none;html=1;" edge="1" parent="1" source="50">
                    <mxGeometry relative="1" as="geometry">
                        <mxPoint x="280" y="540" as="targetPoint"/>
                        <Array as="points">
                            <mxPoint x="60" y="540"/>
                            <mxPoint x="170" y="540"/>
                        </Array>
                    </mxGeometry>
                </mxCell>
                <mxCell id="50" value="CATCH" style="rounded=1;whiteSpace=wrap;html=1;" vertex="1" parent="1">
                    <mxGeometry y="640" width="120" height="60" as="geometry"/>
                </mxCell>
            </root>
        </mxGraphModel>
    </diagram>
</mxfile>